<svg version="1.1" xmlns="http://www.w3.org/2000/svg" viewBox="0 0 500 500">
  <!-- Rounded border -->
  <rect x="8" y="8" width="484" height="484" rx="60" ry="60" fill="none" stroke="#3877A2" stroke-width="16"/>
  
  <!-- Scaled and centered tree content -->
  <g transform="translate(250,250) scale(1.35) translate(-250,-250)">


















<path fill="#4BA7CA" opacity="1.000000" stroke="none" 
	d="
M294.996002,369.159851 
	C293.924438,367.390320 292.010284,365.658966 291.927979,363.844574 
	C291.581940,356.215393 291.608643,348.556274 291.832794,340.917908 
	C292.063049,333.070526 288.859863,327.143829 282.664734,322.606415 
	C278.375031,319.464600 273.912018,316.515839 269.931885,313.019257 
	C268.588654,311.839203 268.041962,309.271973 267.905823,307.285614 
	C267.438721,300.469788 269.997284,295.949188 276.862122,293.005615 
	C283.461365,290.175995 285.946472,283.578552 286.076752,276.493378 
	C286.226501,268.352783 286.100372,260.207092 286.094788,252.063614 
	C286.093323,249.952972 286.094574,247.842346 286.094574,245.097809 
	C288.005127,245.807083 289.179626,246.243103 290.690430,246.763031 
	C291.439941,247.207779 291.853119,247.568665 292.716248,248.286926 
	C300.510162,254.439011 305.609894,261.973053 309.851074,270.172485 
	C309.851074,270.172485 309.794159,270.118774 309.807983,270.532654 
	C311.118439,276.792358 312.717346,282.593781 313.585236,288.502533 
	C314.025391,291.499237 313.951935,295.085968 312.667358,297.695404 
	C310.934906,301.214569 311.423920,303.947144 312.976257,307.076782 
	C315.935577,313.042877 318.771423,319.070343 321.644867,325.078888 
	C322.883698,327.669373 323.651489,330.374298 320.319763,331.874390 
	C317.338654,333.216583 314.131622,334.057098 310.797852,335.160522 
	C310.280273,335.406036 310.184967,335.678528 310.251434,336.485535 
	C310.167938,345.299500 310.118561,353.647430 309.951050,362.206299 
	C309.832916,362.417206 309.767426,362.896240 309.553131,363.143524 
	C306.811707,365.786560 304.284576,368.182312 301.757446,370.578125 
	C300.481628,370.608032 299.205780,370.637939 297.548218,370.629883 
	C297.197449,370.307159 297.116241,370.059174 296.520081,369.573608 
	C295.743561,369.252808 295.369781,369.206329 294.996002,369.159851 
z"/>

<path fill="#369494" opacity="1.000000" stroke="none" 
	d="
M203.011032,369.021790 
	C204.076508,369.019287 205.141968,369.016785 206.892838,369.194397 
	C226.488647,378.029755 245.427612,386.623444 264.292175,395.377502 
	C270.009705,398.030731 273.330383,402.770142 275.136627,409.346222 
	C243.456573,409.346222 212.387222,409.346222 181.032166,409.346222 
	C181.270996,408.113617 181.259583,407.418488 181.534393,406.865662 
	C186.942093,395.986420 192.276703,385.068024 197.909424,374.305908 
	C198.998749,372.224640 201.279755,370.767059 203.011032,369.021790 
z"/>
<path fill="#3979A8" opacity="1.000000" stroke="none" 
	d="
M287.413757,233.394745 
	C278.880371,232.672256 278.913330,232.672211 278.923004,240.636963 
	C278.936737,251.949951 278.913544,263.263092 278.871338,274.576019 
	C278.850159,280.250122 276.821411,284.809540 270.838165,288.249359 
	C270.538147,286.014954 270.159454,284.497589 270.157227,282.979706 
	C270.130371,264.513031 270.014984,246.044083 270.294983,227.581375 
	C270.350647,223.909683 271.975220,220.261780 273.443542,216.269501 
	C274.982452,214.889267 275.954132,213.842422 276.925842,212.795578 
	C277.245483,212.346024 277.565125,211.896454 278.356781,211.203629 
	C279.552643,210.641190 280.276489,210.322021 281.000336,210.002838 
	C282.743164,209.722870 284.486023,209.442917 286.831055,209.516556 
	C289.153015,210.246246 290.866943,210.912170 292.593597,210.946838 
	C299.047485,211.076401 305.531006,210.635117 311.956024,211.084824 
	C321.605713,211.760254 330.066254,210.917847 336.132965,201.685913 
	C339.075806,197.207687 341.673645,198.385147 342.878052,204.238403 
	C342.482666,204.984741 342.204315,205.474243 341.673553,206.093613 
	C340.935547,206.792130 340.449951,207.360764 339.703125,208.043839 
	C338.943085,208.432129 338.444275,208.705963 337.591583,209.013947 
	C334.509491,211.398560 331.781281,213.749008 329.027283,216.076447 
	C329.001465,216.053436 329.070526,216.056976 328.597290,216.042084 
	C322.435303,216.312332 316.746552,216.597488 310.669800,216.927582 
	C309.502655,216.941681 308.723511,216.910812 307.664551,216.712921 
	C305.942169,216.655945 304.499695,216.765991 302.675873,216.922363 
	C301.528473,216.938675 300.762390,216.908691 299.835297,216.584991 
	C294.781799,216.529541 289.889282,216.767792 284.704865,217.137543 
	C283.590698,217.477783 282.768494,217.686539 281.687805,217.779999 
	C280.641449,218.830597 279.853638,219.996490 279.085022,221.557358 
	C279.255920,226.035034 282.449921,224.984299 284.658752,224.993744 
	C301.437958,225.065399 318.220581,224.816940 334.995758,225.077576 
	C340.369232,225.161057 343.812866,223.099442 346.524811,218.456696 
	C348.911072,216.229248 350.990509,214.168655 353.357056,211.954193 
	C355.516083,210.078461 357.388031,208.356613 359.658691,206.574844 
	C361.399963,206.297943 362.742554,206.080948 364.524536,205.921387 
	C369.889893,206.494965 374.617706,206.521210 377.395477,200.946152 
	C378.484985,200.311874 379.305023,199.791260 380.553253,199.241089 
	C381.645966,199.167801 382.310028,199.096176 382.975128,199.084763 
	C389.488892,198.972733 394.712219,202.505493 395.889557,207.808121 
	C397.194580,213.685776 394.988525,218.616730 389.856415,221.293304 
	C384.356384,224.161758 378.748566,222.796249 374.348267,217.517090 
	C371.243195,213.791840 362.926331,213.745895 359.230103,217.447556 
	C355.118225,221.565536 351.213684,225.920609 346.828339,229.722000 
	C344.859802,231.428391 341.995270,232.826584 339.444183,233.000809 
	C331.482971,233.544495 323.477783,233.504105 315.488708,233.563461 
	C307.676056,233.621506 299.862213,233.523987 292.048889,233.494751 
	C290.642792,233.433853 289.236664,233.372955 287.413757,233.394745 
z"/>
<path fill="#367AAB" opacity="1.000000" stroke="none" 
	d="
M207.795868,249.968857 
	C210.119278,248.518936 212.244598,247.307434 215.192337,245.627136 
	C215.451553,248.285233 215.787247,250.161285 215.793396,252.038422 
	C215.842392,266.985535 215.654709,281.935669 215.899414,296.878998 
	C216.047699,305.934784 218.341431,314.448639 225.938629,320.299835 
	C229.004852,322.661346 232.584198,324.803711 236.267014,325.799744 
	C240.488708,326.941437 242.827042,328.525543 241.619827,333.587585 
	C240.486755,334.149109 239.738846,334.258667 238.528503,334.303101 
	C232.704865,334.288391 227.343658,334.338806 221.537598,334.310425 
	C218.394180,334.307587 215.695587,334.383545 212.624924,334.382996 
	C211.498306,334.358215 210.743759,334.409943 209.989227,334.461670 
	C209.343124,333.835327 208.697006,333.209015 207.797302,331.967773 
	C205.057846,328.152405 202.571960,324.951965 200.086075,321.751495 
	C197.065720,315.496063 193.194427,309.499969 191.193542,302.933868 
	C186.291260,286.846619 190.568054,272.118561 200.116501,258.035217 
	C202.394623,255.476303 204.257065,253.393600 206.119522,251.310883 
	C206.612274,250.943024 207.105042,250.575165 207.795868,249.968857 
z"/>
<path fill="#92BF54" opacity="1.000000" stroke="none" 
	d="
M222.673981,209.146591 
	C222.804733,209.624191 222.778625,210.340530 223.089142,210.544540 
	C231.166260,215.851624 231.824646,224.051865 231.794113,232.557587 
	C231.752289,244.211945 231.745529,255.866470 231.748062,267.520935 
	C231.750153,277.165527 231.765778,277.165527 223.726227,283.633850 
	C223.190079,281.323029 222.696457,279.195526 222.388138,276.553040 
	C222.703064,275.695953 222.832703,275.353851 222.962341,275.011749 
	C222.996140,262.643860 223.029922,250.275986 223.060760,237.079895 
	C223.014267,235.514343 222.970734,234.777008 222.846481,233.819061 
	C222.540512,233.328934 222.256790,233.233902 221.452942,233.276596 
	C201.005630,233.340851 181.019958,233.441864 161.034302,233.542892 
	C159.628448,233.122406 158.222595,232.701920 156.360809,231.879333 
	C155.602463,231.285522 155.300049,231.093811 154.997620,230.902084 
	C154.997620,230.902084 155.000641,231.001801 154.950226,230.744125 
	C154.599167,230.293167 154.298523,230.099869 153.997894,229.906570 
	C153.997894,229.906570 153.998199,230.002182 153.951141,229.743286 
	C153.602112,229.291550 153.300156,229.098709 152.998199,228.905869 
	C152.998199,228.905869 152.998016,229.001709 152.950668,228.743286 
	C152.601669,228.291626 152.300034,228.098373 151.998383,227.905136 
	C151.998383,227.905136 151.998169,228.001236 151.949677,227.745575 
	C151.602249,227.294250 151.303284,227.098602 151.004318,226.902954 
	C151.004318,226.902954 150.993515,227.000275 150.943695,226.701920 
	C150.611511,226.096634 150.329147,225.789719 150.046783,225.482788 
	C148.142487,223.402908 145.926636,221.528000 144.396515,219.201981 
	C140.829865,213.780136 135.518066,214.797501 130.490112,215.239197 
	C129.249557,215.348175 128.103745,217.231796 127.028633,218.404358 
	C122.953918,222.848434 116.715126,223.973526 111.599113,221.126541 
	C106.609016,218.349609 104.222565,212.266907 106.039528,206.956009 
	C107.693665,202.121048 113.883850,198.032349 119.118042,199.217453 
	C121.956703,199.860184 124.400887,202.216415 127.043411,203.764908 
	C128.641037,204.701126 130.371811,206.476730 131.881256,206.319992 
	C140.305389,205.445236 147.028702,208.626984 151.697235,215.159821 
	C157.941376,223.897461 166.043213,225.834885 176.236389,225.229980 
	C189.497604,224.443024 202.841415,225.048004 216.149673,225.053635 
	C218.250671,225.054520 220.351654,225.053741 222.549637,225.053741 
	C223.066788,220.404877 220.620163,218.651993 217.080475,216.951233 
	C216.022110,216.385864 215.494415,216.157074 214.972916,215.507599 
	C214.981903,213.403107 214.984711,211.719315 215.324036,210.023438 
	C216.736145,209.780136 217.811737,209.548904 219.266754,209.297821 
	C220.655441,209.234177 221.664703,209.190384 222.673981,209.146591 
z"/>

<path fill="#3979A6" opacity="1.000000" stroke="none" 
	d="
M308.884247,178.528015 
	C308.499359,179.420273 308.160675,179.874313 307.705231,180.589783 
	C303.554352,184.378677 299.520233,187.906143 294.765442,191.625092 
	C290.032349,191.879654 286.019928,191.942734 282.007507,192.005814 
	C279.570007,192.210541 277.132538,192.415268 274.040833,192.945038 
	C271.547363,195.131317 269.708130,196.992538 267.868896,198.853775 
	C267.868896,198.853775 267.841705,198.796753 267.810120,198.789185 
	C266.270477,200.018661 264.762451,201.255722 262.740051,202.628937 
	C258.500397,199.233032 257.343170,203.910080 255.065369,205.005081 
	C256.930023,201.203278 258.794678,197.401474 260.796875,193.294174 
	C267.984619,184.145142 277.385071,182.343430 288.107697,183.148407 
	C295.814148,183.726959 300.896484,178.342072 300.940765,170.689880 
	C301.015900,157.710724 301.105225,144.727905 300.828705,131.754303 
	C300.784668,129.688919 299.336395,127.116005 297.722504,125.719231 
	C292.194946,120.935326 291.359772,114.058098 296.122681,108.593262 
	C300.893311,103.119568 308.170593,102.766464 313.282684,107.760651 
	C318.377380,112.737846 318.101044,119.866249 313.147156,125.108734 
	C311.417633,126.939011 309.913940,129.793442 309.827942,132.233780 
	C309.289490,147.510681 309.181152,162.802750 308.884247,178.528015 
z"/>

<path fill="#91BE53" opacity="1.000000" stroke="none" 
	d="
M230.059814,193.831085 
	C230.059814,193.831070 229.645859,193.841965 229.211838,193.501984 
	C226.607986,192.670349 224.458511,191.902451 222.264374,191.740799 
	C216.534775,191.318710 210.785614,191.161896 204.842224,190.635895 
	C200.757080,186.581085 196.873962,182.789703 192.990860,178.998306 
	C192.955490,163.407196 193.004547,147.814896 192.782486,132.226440 
	C192.753326,130.178665 191.874115,127.611473 190.467300,126.209015 
	C185.052567,120.810966 183.592117,116.488380 186.181442,111.310715 
	C189.236710,105.201355 193.507935,103.485161 202.278854,105.385727 
	C204.811234,107.875443 206.755341,110.058533 208.699463,112.241615 
	C208.699463,112.241615 208.509171,112.274925 208.501953,112.371933 
	C209.924942,118.845749 207.877365,123.692276 201.527954,127.288132 
	C200.620804,128.594864 200.069839,129.526886 200.065659,130.461380 
	C200.003738,144.290054 199.971420,158.119354 200.075607,171.947449 
	C200.085815,173.301193 201.041794,174.647797 201.558792,175.997726 
	C206.150375,182.458237 212.441055,184.204346 220.099854,183.389832 
	C224.755081,182.894730 229.786819,182.405228 233.778046,187.050583 
	C232.647675,189.746033 231.353745,191.788559 230.059814,193.831085 
z"/>


<path fill="#3877A2" opacity="1.000000" stroke="none" 
	d="
M377.581604,164.830429 
	C377.953369,171.462616 377.868164,177.923920 378.001160,184.380722 
	C378.063812,187.423035 377.073792,189.158646 373.016754,189.091644 
	C371.136414,189.170441 370.063507,189.230331 368.540833,189.224625 
	C361.435608,187.904083 356.241211,189.980637 351.969116,195.367615 
	C349.416260,198.586670 346.014984,201.132889 342.995056,203.981567 
	C341.673645,198.385147 339.075806,197.207687 336.132965,201.685913 
	C330.066254,210.917847 321.605713,211.760254 311.956024,211.084824 
	C305.531006,210.635117 299.047485,211.076401 292.593597,210.946838 
	C290.866943,210.912170 289.153015,210.246246 287.222351,209.565735 
	C294.172028,209.192703 301.336334,209.243073 308.491974,209.017410 
	C314.113708,208.840134 319.742279,208.477539 325.328613,207.849030 
	C326.779846,207.685760 328.274872,206.417526 329.425415,205.317551 
	C336.866882,198.203201 344.395325,191.161850 351.458160,183.683792 
	C352.963806,182.089676 353.029694,178.811600 353.142975,176.281754 
	C353.678772,164.314560 353.602478,164.269989 365.797638,164.240799 
	C369.602753,164.231689 373.408569,164.510620 377.581604,164.830429 
M369.810211,173.944702 
	C367.292206,173.500763 364.774231,173.056839 362.256226,172.612900 
	C361.968658,174.808838 360.787628,177.517990 361.664703,179.044937 
	C362.421478,180.362411 366.094147,181.365997 367.429352,180.623413 
	C368.886353,179.813110 369.137268,176.834259 369.810211,173.944702 
z"/>
<path fill="#92BF58" opacity="1.000000" stroke="none" 
	d="
M164.555695,197.918457 
	C167.335464,200.616623 169.817047,203.173935 172.706741,206.121140 
	C173.401520,206.704651 173.688187,206.898285 173.974838,207.091919 
	C173.974838,207.091919 174.039581,207.510498 173.656464,207.740250 
	C169.916519,207.831802 167.731598,208.964111 168.038895,212.798294 
	C161.465820,206.484802 154.687775,200.366852 148.402557,193.778748 
	C145.053513,190.268295 141.677887,188.688278 136.727676,188.859665 
	C124.140701,189.295441 124.131424,189.056885 124.118423,176.609833 
	C124.114464,172.819473 124.117805,169.029129 124.117805,164.565857 
	C131.855957,164.565857 139.113419,164.501984 146.366135,164.658432 
	C147.145248,164.675232 147.928940,165.943420 148.638367,166.698822 
	C148.815475,166.887421 148.794922,167.358078 148.725601,167.667847 
	C145.509323,182.038452 155.158829,189.765411 164.555695,197.918457 
M133.854996,172.224014 
	C133.055557,174.868759 132.256119,177.513489 131.424911,180.263336 
	C140.289658,181.765991 140.951050,181.264328 140.994751,175.912796 
	C141.037582,170.670654 137.342880,172.510208 133.854996,172.224014 
z"/>

<path fill="#379493" opacity="1.000000" stroke="none" 
	d="
M209.817657,341.959656 
	C214.966553,341.944122 219.952423,341.752228 224.892044,342.143768 
	C226.324387,342.257324 228.759857,343.995728 228.803940,345.068604 
	C229.135742,353.143555 228.984879,361.238312 228.984879,370.492157 
	C221.921097,367.304657 215.586151,364.446045 209.094345,360.822327 
	C209.046463,354.042969 209.155426,348.028717 209.264389,342.014435 
	C209.264389,342.014435 209.637024,342.005493 209.817657,341.959656 
z"/>
<path fill="#92BF4D" opacity="1.000000" stroke="none" 
	d="
M168.175751,213.053802 
	C167.731598,208.964111 169.916519,207.831802 173.679138,207.950806 
	C174.084915,207.931610 174.026291,207.968445 174.229126,208.141113 
	C174.768921,208.522385 175.105896,208.730957 175.583130,208.924393 
	C175.723373,208.909241 175.968536,209.048843 176.330963,209.250427 
	C178.496445,209.636734 180.298691,209.971817 182.102692,209.981537 
	C193.064072,210.040695 204.025864,210.025726 214.987518,210.035507 
	C214.984711,211.719315 214.981903,213.403107 214.508087,215.522705 
	C200.214218,216.015823 186.391388,216.073120 172.568542,216.130432 
	C172.568542,216.130432 172.234222,216.090836 171.903473,215.825195 
	C171.272995,215.396194 170.973267,215.232819 170.673553,215.069443 
	C170.673553,215.069443 170.237869,214.938309 169.964859,214.673386 
	C169.551132,214.256302 169.401398,214.113602 169.242676,213.980347 
	C168.932648,213.756668 168.622620,213.532974 168.175751,213.053802 
z"/>











<path fill="#89B562" opacity="1.000000" stroke="none" 
	d="
M172.928833,216.405914 
	C186.391388,216.073120 200.214218,216.015823 214.501892,215.943390 
	C215.494415,216.157074 216.022110,216.385864 216.770645,216.799316 
	C202.424042,216.883118 187.856598,216.782257 172.928833,216.405914 
z"/>








<path fill="#3877A2" opacity="1.000000" stroke="none" 
	d="
M280.634705,210.028320 
	C280.276489,210.322021 279.552643,210.641190 278.529022,210.987213 
	C278.229248,211.014069 278.126007,210.598358 278.100586,210.385956 
	C278.806458,210.133636 279.537750,210.093719 280.634705,210.028320 
z"/>






<path fill="#92BF58" opacity="1.000000" stroke="none" 
	d="
M170.825012,215.293457 
	C170.973267,215.232819 171.272995,215.396194 171.770325,215.722214 
	C171.637436,215.762405 171.306946,215.639954 170.825012,215.293457 
z"/>
<path fill="#92BF58" opacity="1.000000" stroke="none" 
	d="
M169.280365,214.150330 
	C169.401398,214.113602 169.551132,214.256302 169.791656,214.525894 
	C169.627823,214.664383 169.436691,214.556717 169.280365,214.150330 
z"/>
<path fill="#96C450" opacity="1.000000" stroke="none" 
	d="
M238.171463,201.934509 
	C237.530899,201.467789 236.890320,201.001083 236.144058,199.867554 
	C236.550507,197.672699 236.592209,195.489304 237.654037,194.727127 
	C242.993195,190.894745 242.155930,185.816299 241.441025,180.425949 
	C240.807236,175.647171 239.518799,171.005630 241.481766,165.871170 
	C242.518051,163.160583 240.415817,159.250092 239.730606,155.881363 
	C239.786682,155.707550 239.842773,155.533722 240.203339,154.998291 
	C240.687836,154.436722 240.843796,154.219543 240.975754,153.985123 
	C246.728989,149.256317 247.384171,142.937317 246.977859,136.048325 
	C246.625748,130.078430 246.911224,124.070946 246.765167,117.278091 
	C244.104111,115.978638 241.592773,115.481171 239.081436,114.983704 
	C239.027039,113.259926 238.972626,111.536163 239.172455,109.135117 
	C239.304840,107.313576 239.182983,106.169319 239.061127,105.025063 
	C239.005325,103.293221 238.949539,101.561371 239.164352,99.098434 
	C239.948944,94.314522 242.350952,92.804916 246.290054,92.999420 
	C249.591263,93.162430 252.928116,93.262657 256.211578,92.969505 
	C260.947510,92.546677 262.425385,94.711105 262.053619,99.091156 
	C261.830536,101.719704 261.894257,104.389336 262.040741,107.028748 
	C262.282837,111.390358 262.286621,115.438164 256.278839,115.608978 
	C255.887726,115.620110 255.523788,116.586044 255.147217,117.107834 
	C255.147232,117.107841 255.055328,117.107246 254.859131,117.422867 
	C254.477371,128.517639 254.291779,139.296783 254.106201,150.075943 
	C251.944870,152.859695 249.783524,155.643433 247.156555,159.013214 
	C246.454041,161.560150 246.012268,163.520859 246.010666,165.481949 
	C245.981033,201.950500 246.003799,238.419098 245.667389,274.754913 
	C241.826721,273.774750 241.975754,271.042725 241.978317,268.309540 
	C241.997330,248.037674 241.982712,227.765793 241.990448,207.493912 
	C241.991486,204.743668 242.160202,201.923340 238.171463,201.934509 
M255.636246,102.402290 
	C254.893021,97.303497 250.903336,99.650475 248.607529,99.888634 
	C244.511063,100.313599 246.536407,104.055748 246.348450,106.344131 
	C246.044327,110.046806 249.085175,109.367027 251.273392,109.339249 
	C253.466629,109.311424 256.458984,109.892509 255.480377,105.183067 
	C255.457306,104.498665 255.434235,103.814270 255.636246,102.402290 
z"/>
<path fill="#369292" opacity="1.000000" stroke="none" 
	d="
M283.587006,363.900055 
	C282.036255,363.510468 280.400146,363.319458 278.949951,362.695923 
	C273.464478,360.337372 268.169769,357.471558 262.561127,355.477722 
	C254.067856,352.458374 250.205750,346.460449 249.715698,337.823486 
	C249.649872,336.663330 249.773712,335.487579 249.648773,334.336487 
	C249.079697,329.093109 250.185684,325.040985 255.956314,323.169708 
	C258.906097,322.213135 261.594543,318.913544 264.264923,319.065552 
	C266.927460,319.217133 269.611633,322.146057 271.944000,324.238800 
	C275.949280,327.832642 279.688385,331.723175 283.716278,336.227753 
	C283.791229,345.944275 283.689117,354.922150 283.587006,363.900055 
z"/>
<path fill="#377BAC" opacity="1.000000" stroke="none" 
	d="
M269.484467,366.036438 
	C270.367523,367.458221 270.883820,368.852966 271.454681,370.625458 
	C271.473022,371.456665 271.436798,371.910126 271.358093,373.059692 
	C271.285187,374.498840 271.254791,375.241821 271.224365,375.984833 
	C270.490784,377.093719 269.757172,378.202576 268.927307,379.630188 
	C268.069183,381.025146 267.149445,382.024109 266.577606,383.193237 
	C265.282532,385.841003 263.482513,386.285553 260.884491,385.084839 
	C253.656082,381.744202 246.352264,378.564972 239.159546,375.150726 
	C238.164429,374.678375 236.978180,373.235809 236.981232,372.245789 
	C237.011734,362.318909 237.272644,352.392731 238.071716,342.141510 
	C239.124039,341.759705 239.573288,341.702759 240.384003,341.728485 
	C241.476364,341.936493 242.207245,342.061829 242.962128,342.489746 
	C243.216751,343.556091 243.447357,344.319946 243.677963,345.083771 
	C244.235367,350.612457 246.988403,355.019836 251.657394,357.664490 
	C257.256561,360.836121 263.278748,363.261078 269.484467,366.036438 
z"/>
<path fill="#36918E" opacity="1.000000" stroke="none" 
	d="
M227.196030,292.455200 
	C231.779938,285.702087 237.651459,282.093292 245.607254,283.519714 
	C253.151123,284.872284 257.877045,289.460846 260.053406,296.951202 
	C262.315155,304.735413 259.660217,310.671448 253.829895,315.551086 
	C247.811523,320.588135 239.518829,320.554352 231.982651,315.685455 
	C226.718414,312.284393 223.755539,303.839478 225.503189,297.014740 
	C225.872391,295.572937 226.507355,294.199188 227.196030,292.455200 
M236.212067,308.350861 
	C240.001678,311.936493 244.339630,312.336945 248.459000,309.473969 
	C252.104614,306.940186 253.826630,303.145386 252.162079,298.570892 
	C250.828156,294.904999 248.485657,292.339630 244.337189,291.822296 
	C240.120361,291.296417 236.811035,292.671417 234.550735,296.284637 
	C231.989182,300.379425 232.829163,304.190399 236.212067,308.350861 
z"/>
<path fill="#387CB0" opacity="1.000000" stroke="none" 
	d="
M254.999268,205.469666 
	C257.343170,203.910080 258.500397,199.233032 262.521332,202.884064 
	C262.823486,212.358398 262.830017,221.713760 262.520325,231.678467 
	C262.373749,233.526398 262.543427,234.764984 262.713135,236.003571 
	C262.754852,242.692947 262.796600,249.382339 262.477600,256.748352 
	C262.004639,261.750977 261.688873,266.084076 261.838776,270.401001 
	C261.982971,274.554535 262.460907,278.605042 256.684814,279.138184 
	C256.684814,279.138184 256.313263,279.063385 256.023071,278.815369 
	C255.555984,278.362274 255.357254,278.181152 254.992065,277.765503 
	C254.751114,277.334595 254.654739,277.162231 254.558380,276.989868 
	C254.673553,276.540436 254.788742,276.091034 255.181778,274.946411 
	C255.304245,269.167816 255.148865,264.084442 254.993469,259.001038 
	C254.837677,258.789124 254.701981,258.565033 254.517181,257.838562 
	C254.629974,256.231964 254.811996,255.115601 255.176331,253.741791 
	C255.233154,252.323502 255.107651,251.162643 254.860321,250.009064 
	C254.738495,250.016357 254.494629,250.027679 254.494629,250.027679 
	C254.617615,247.981491 254.740601,245.935287 255.123138,243.111206 
	C255.248535,239.219116 255.114349,236.104904 254.980164,232.990707 
	C254.964493,223.971878 254.948822,214.953064 254.999268,205.469666 
z"/>

<path fill="#94C05D" opacity="1.000000" stroke="none" 
	d="
M238.176132,202.130341 
	C242.160202,201.923340 241.991486,204.743668 241.990448,207.493912 
	C241.982712,227.765793 241.997330,248.037674 241.978317,268.309540 
	C241.975754,271.042725 241.826721,273.774750 245.871002,274.784027 
	C246.422775,274.945923 246.831818,274.989380 246.831818,274.989380 
	C244.412170,275.121765 241.992523,275.254120 239.302338,274.708984 
	C238.959793,252.709564 238.887787,231.387695 238.875458,209.644257 
	C238.680069,207.054382 238.425003,204.886063 238.169922,202.717758 
	C238.169922,202.717758 238.180801,202.326157 238.176132,202.130341 
z"/>
<path fill="#94C05D" opacity="1.000000" stroke="none" 
	d="
M239.497192,156.233948 
	C240.415817,159.250092 242.518051,163.160583 241.481766,165.871170 
	C239.518799,171.005630 240.807236,175.647171 241.441025,180.425949 
	C242.155930,185.816299 242.993195,190.894745 237.654037,194.727127 
	C236.592209,195.489304 236.550507,197.672699 236.030533,199.584335 
	C234.585815,198.624451 233.148926,197.280960 231.412994,195.789490 
	C230.835449,195.198044 230.556946,194.754562 230.169128,194.071091 
	C231.353745,191.788559 232.647675,189.746033 233.969223,187.344910 
	C235.336380,187.914444 236.675888,188.842560 239.263779,190.635635 
	C239.263779,178.719528 239.263779,167.653030 239.497192,156.233948 
z"/>
<path fill="#9AC868" opacity="1.000000" stroke="none" 
	d="
M246.938019,274.531616 
	C246.831818,274.989380 246.422775,274.945923 246.219147,274.916809 
	C246.003799,238.419098 245.981033,201.950500 246.010666,165.481949 
	C246.012268,163.520859 246.454041,161.560150 246.927292,159.240204 
	C247.123856,197.278717 247.084030,235.676270 246.938019,274.531616 
z"/>
<path fill="#89B562" opacity="1.000000" stroke="none" 
	d="
M255.572052,117.071274 
	C255.523788,116.586044 255.887726,115.620110 256.278839,115.608978 
	C262.286621,115.438164 262.282837,111.390358 262.040741,107.028748 
	C261.894257,104.389336 261.830536,101.719704 262.053619,99.091156 
	C262.425385,94.711105 260.947510,92.546677 256.211578,92.969505 
	C252.928116,93.262657 249.591263,93.162430 246.290054,92.999420 
	C242.350952,92.804916 239.948944,94.314522 239.239639,98.670700 
	C239.044327,96.879654 239.044327,94.785263 239.044327,92.366936 
	C247.222672,92.366936 255.068253,92.366936 263.478302,92.366936 
	C263.478302,99.923759 263.911835,107.203125 263.321930,114.398575 
	C262.944885,118.997719 258.455170,116.058945 255.572052,117.071274 
z"/>




<path fill="#3979A6" opacity="1.000000" stroke="none" 
	d="
M256.901978,279.399597 
	C262.460907,278.605042 261.982971,274.554535 261.838776,270.401001 
	C261.688873,266.084076 262.004639,261.750977 262.416382,257.213196 
	C262.715973,265.590729 262.715973,274.179993 262.715973,283.926086 
	C260.373810,282.141235 258.746490,280.901123 256.901978,279.399597 
z"/>
<path fill="#9AC868" opacity="1.000000" stroke="none" 
	d="
M201.447083,175.536072 
	C201.041794,174.647797 200.085815,173.301193 200.075607,171.947449 
	C199.971420,158.119354 200.003738,144.290054 200.065659,130.461380 
	C200.069839,129.526886 200.620804,128.594864 201.209259,127.349060 
	C201.445831,143.049103 201.390594,159.061768 201.447083,175.536072 
z"/>

<path fill="#89B562" opacity="1.000000" stroke="none" 
	d="
M254.418259,149.783981 
	C254.291779,139.296783 254.477371,128.517639 254.901276,117.404663 
	C255.003174,127.877907 254.866745,138.684967 254.418259,149.783981 
z"/>


<path fill="#3979A6" opacity="1.000000" stroke="none" 
	d="
M254.675781,270.417542 
	C254.583817,267.915070 254.566345,265.821869 254.452301,263.358215 
	C254.513672,261.877380 254.671631,260.766998 254.911530,259.328827 
	C255.148865,264.084442 255.304245,269.167816 255.265869,274.608459 
	C254.964828,273.586060 254.857544,272.206421 254.675781,270.417542 
z"/>
<path fill="#89B562" opacity="1.000000" stroke="none" 
	d="
M239.112305,115.374695 
	C241.592773,115.481171 244.104111,115.978638 246.750244,116.819931 
	C244.304428,116.697731 241.723801,116.231705 239.112305,115.374695 
z"/>

<path fill="#3979A6" opacity="1.000000" stroke="none" 
	d="
M254.919861,233.442841 
	C255.114349,236.104904 255.248535,239.219116 255.176208,242.673508 
	C254.932999,239.974121 254.896286,236.934540 254.919861,233.442841 
z"/>
<path fill="#3979A6" opacity="1.000000" stroke="none" 
	d="
M262.786621,235.606689 
	C262.543427,234.764984 262.373749,233.526398 262.458313,232.143188 
	C262.761749,233.068985 262.810944,234.139389 262.786621,235.606689 
z"/>
<path fill="#3877A2" opacity="1.000000" stroke="none" 
	d="
M276.635101,212.913757 
	C275.954132,213.842422 274.982452,214.889267 273.688354,215.978027 
	C274.358765,215.023941 275.351562,214.027939 276.635101,212.913757 
z"/>

<path fill="#89B562" opacity="1.000000" stroke="none" 
	d="
M238.963165,105.412178 
	C239.182983,106.169319 239.304840,107.313576 239.249435,108.709549 
	C239.003189,107.907280 238.934204,106.853287 238.963165,105.412178 
z"/>


<path fill="#3979A6" opacity="1.000000" stroke="none" 
	d="
M255.245819,278.978973 
	C255.000854,278.999023 255.034714,278.506683 255.085693,278.265350 
	C255.357254,278.181152 255.555984,278.362274 255.855026,278.727783 
	C255.977203,278.888153 255.490768,278.958923 255.245819,278.978973 
z"/>

<path fill="#94C05D" opacity="1.000000" stroke="none" 
	d="
M240.778473,154.074814 
	C240.843796,154.219543 240.687836,154.436722 240.364487,154.776733 
	C240.200516,154.598724 240.320541,154.347961 240.778473,154.074814 
z"/>







<path fill="#3877A2" opacity="1.000000" stroke="none" 
	d="
M337.591583,209.013947 
	C335.210175,211.310715 332.474915,213.641632 329.396362,216.036011 
	C331.781281,213.749008 334.509491,211.398560 337.591583,209.013947 
z"/>
<path fill="#3877A2" opacity="1.000000" stroke="none" 
	d="
M328.597290,216.042084 
	C323.372009,216.373383 317.673492,216.689789 311.516388,216.944412 
	C316.746552,216.597488 322.435303,216.312332 328.597290,216.042084 
z"/>
<path fill="#3877A2" opacity="1.000000" stroke="none" 
	d="
M299.835297,216.584991 
	C295.306396,216.950241 290.616455,217.021774 285.461670,217.049667 
	C289.889282,216.767792 294.781799,216.529541 299.835297,216.584991 
z"/>
<path fill="#3877A2" opacity="1.000000" stroke="none" 
	d="
M281.687805,217.779999 
	C281.148285,218.851868 280.350281,219.808426 279.309021,220.963684 
	C279.853638,219.996490 280.641449,218.830597 281.687805,217.779999 
z"/>
<path fill="#3877A2" opacity="1.000000" stroke="none" 
	d="
M307.664551,216.712921 
	C306.584747,216.918381 305.225067,216.956818 303.461304,216.935654 
	C304.499695,216.765991 305.942169,216.655945 307.664551,216.712921 
z"/>
<path fill="#89B562" opacity="1.000000" stroke="none" 
	d="
M215.324036,210.023438 
	C204.025864,210.025726 193.064072,210.040695 182.102692,209.981537 
	C180.298691,209.971817 178.496445,209.636734 176.802368,209.223419 
	C190.937210,208.968872 204.963104,208.942917 218.988983,208.916977 
	C218.988983,208.916977 218.946198,209.119370 218.916779,209.218521 
	C217.811737,209.548904 216.736145,209.780136 215.324036,210.023438 
z"/>
<path fill="#456E40" opacity="1.000000" stroke="none" 
	d="
M222.846466,233.819061 
	C222.658478,233.946243 222.415100,233.808167 222.055817,233.469421 
	C222.256790,233.233902 222.540512,233.328934 222.846466,233.819061 
z"/>



<path fill="#92BF58" opacity="1.000000" stroke="none" 
	d="
M174.793427,207.961639 
	C175.124405,208.137741 175.190964,208.296494 175.350189,208.697403 
	C175.105896,208.730957 174.768921,208.522385 174.216217,208.109039 
	C174.176651,207.917633 174.352829,207.930969 174.793427,207.961639 
z"/>




<path fill="#456E40" opacity="1.000000" stroke="none" 
	d="
M255.390610,105.863319 
	C256.458984,109.892509 253.466629,109.311424 251.273392,109.339249 
	C249.085175,109.367027 246.044327,110.046806 246.348450,106.344131 
	C246.536407,104.055748 244.511063,100.313599 248.607529,99.888634 
	C250.903336,99.650475 254.893021,97.303497 255.259705,102.551636 
	C252.957840,102.292519 251.019638,101.606491 249.117416,101.694870 
	C248.705475,101.713997 247.652756,104.942322 248.216705,105.960510 
	C250.409683,109.919815 253.000305,107.885040 255.390610,105.863319 
z"/>



<path fill="#3979A6" opacity="1.000000" stroke="none" 
	d="
M255.176331,253.741791 
	C254.951569,252.931778 254.909119,251.864349 254.924408,250.399353 
	C255.107651,251.162643 255.233154,252.323502 255.176331,253.741791 
z"/>


  </g>
</svg>
