<svg width="24" height="24" viewBox="0 0 24 24" fill="none" xmlns="http://www.w3.org/2000/svg">
  <!-- Workspace-focused icon: stacked folders with prominent sparkle -->

  <!-- Back folder (lighter) -->
  <path d="M4 6h5l2 2h7a2 2 0 0 1 2 2v1H4V6z" fill="currentColor" fill-opacity="0.3"/>

  <!-- Middle folder -->
  <path d="M3 9h5l2 2h8a2 2 0 0 1 2 2v1H3V9z" fill="currentColor" fill-opacity="0.5"/>

  <!-- Front folder (main) -->
  <path d="M2 12h5l2 2h9a2 2 0 0 1 2 2v4a2 2 0 0 1-2 2H4a2 2 0 0 1-2-2V12z" fill="currentColor" fill-opacity="0.9"/>

  <!-- Large AI sparkle -->
  <path d="M18 2l1 3 3 1-3 1-1 3-1-3-3-1 3-1 1-3z" fill="currentColor"/>
</svg>
